<svg width="34" height="36" viewBox="0 0 34 36" fill="none" xmlns="http://www.w3.org/2000/svg">
<rect y="7.5" width="28" height="28.2857" rx="4" fill="#2F3030"/>
<path d="M6.7691 28.7857H21.2225C22.1399 28.7857 22.8321 28.5619 23.2993 28.1144C23.7664 27.6669 24 27.0038 24 26.1251V21.5487C24 21.2485 23.9803 20.9947 23.9409 20.7874C23.9071 20.58 23.848 20.3944 23.7636 20.2307C23.6848 20.0669 23.5751 19.8923 23.4344 19.7067L20.6568 16.1128C20.3304 15.6871 20.0349 15.3596 19.7704 15.1304C19.5058 14.8957 19.2104 14.732 18.8839 14.6392C18.5575 14.5464 18.141 14.5 17.6344 14.5H10.3656C9.85338 14.5 9.43408 14.5464 9.10764 14.6392C8.78683 14.732 8.49416 14.8957 8.22963 15.1304C7.9651 15.3596 7.66962 15.6871 7.34318 16.1128L4.56564 19.7067C4.42493 19.8923 4.31237 20.0669 4.22794 20.2307C4.14352 20.3944 4.08442 20.58 4.05065 20.7874C4.01688 20.9947 4 21.2485 4 21.5487V26.1251C4 27.0038 4.23357 27.6669 4.70072 28.1144C5.16786 28.5619 5.85732 28.7857 6.7691 28.7857ZM13.9958 23.7755C13.5737 23.7755 13.205 23.68 12.8898 23.4889C12.5803 23.2925 12.3411 23.0414 12.1722 22.7358C12.0034 22.4247 11.919 22.0972 11.919 21.7534V21.6961C11.919 21.5105 11.8599 21.344 11.7417 21.1967C11.6235 21.0439 11.4434 20.9675 11.2014 20.9675H6.09371C5.94175 20.9675 5.84888 20.9183 5.81511 20.8201C5.78134 20.7219 5.80386 20.6209 5.88265 20.5172L8.95568 16.5057C9.14141 16.2656 9.34684 16.0964 9.57197 15.9982C9.80273 15.8945 10.0588 15.8426 10.3402 15.8426H17.6513C17.944 15.8426 18.2029 15.8945 18.428 15.9982C18.6532 16.0964 18.8558 16.2656 19.0359 16.5057L22.1173 20.5172C22.1849 20.6209 22.2018 20.7219 22.168 20.8201C22.1399 20.9183 22.0498 20.9675 21.8978 20.9675H16.7986C16.5566 20.9675 16.3765 21.0439 16.2583 21.1967C16.1458 21.344 16.0895 21.5105 16.0895 21.6961V21.7534C16.0895 22.0972 16.0023 22.4247 15.8278 22.7358C15.6589 23.0414 15.4169 23.2925 15.1017 23.4889C14.7922 23.68 14.4235 23.7755 13.9958 23.7755Z" fill="white"/>
<circle cx="26" cy="8.78516" r="8" fill="#FA5252"/>
<path d="M22.3047 11.7852H21.0977V8.48047C21.0977 8.38932 21.099 8.27734 21.1016 8.14453C21.1042 8.00911 21.1081 7.87109 21.1133 7.73047C21.1185 7.58724 21.1237 7.45833 21.1289 7.34375C21.1003 7.3776 21.0417 7.4362 20.9531 7.51953C20.8672 7.60026 20.7865 7.67318 20.7109 7.73828L20.0547 8.26562L19.4727 7.53906L21.3125 6.07422H22.3047V11.7852ZM27.8906 11.7852H23.8984V10.9453L25.332 9.49609C25.6211 9.19922 25.8529 8.95182 26.0273 8.75391C26.2044 8.55339 26.332 8.37109 26.4102 8.20703C26.4909 8.04297 26.5312 7.86719 26.5312 7.67969C26.5312 7.45312 26.4674 7.28385 26.3398 7.17188C26.2148 7.05729 26.0469 7 25.8359 7C25.6146 7 25.3997 7.05078 25.1914 7.15234C24.9831 7.25391 24.7656 7.39844 24.5391 7.58594L23.8828 6.80859C24.0469 6.66797 24.2201 6.53516 24.4023 6.41016C24.5872 6.28516 24.8008 6.1849 25.043 6.10938C25.2878 6.03125 25.5807 5.99219 25.9219 5.99219C26.2969 5.99219 26.6185 6.0599 26.8867 6.19531C27.1576 6.33073 27.3659 6.51562 27.5117 6.75C27.6576 6.98177 27.7305 7.24479 27.7305 7.53906C27.7305 7.85417 27.668 8.14193 27.543 8.40234C27.418 8.66276 27.2357 8.92057 26.9961 9.17578C26.7591 9.43099 26.4727 9.71354 26.1367 10.0234L25.4023 10.7148V10.7695H27.8906V11.7852ZM30.8672 8.53906H32.3789V9.39453H30.8672V10.8984H30.0117V9.39453H28.5V8.53906H30.0117V7.01562H30.8672V8.53906Z" fill="white"/>
</svg>
