<svg width="28" height="29" viewBox="0 0 28 29" fill="none" xmlns="http://www.w3.org/2000/svg">
<path fill-rule="evenodd" clip-rule="evenodd" d="M6.30783 9.75731C6 10.4266 6 11.188 6 12.7109V17.4668C6 19.5817 6 20.6391 6.65701 21.2961C7.26684 21.906 8.22167 21.9497 10.0469 21.9529C10.0469 21.9513 10.0469 21.9498 10.0469 21.9482V16.3403C10.0469 15.1686 10.9967 14.2188 12.1685 14.2188H15.5332C16.7049 14.2188 17.6548 15.1686 17.6548 16.3403V21.9482C17.6548 21.9498 17.6548 21.9513 17.6548 21.9529C19.4803 21.9497 20.4352 21.906 21.0451 21.2961C21.7021 20.6391 21.7021 19.5817 21.7021 17.4668V12.7109C21.7021 11.188 21.7021 10.4266 21.3943 9.75731C21.0865 9.08802 20.5084 8.59249 19.3521 7.60145L18.2306 6.64009C16.1407 4.84878 15.0958 3.95312 13.8511 3.95312C12.6064 3.95312 11.5614 4.84878 9.47158 6.64009L9.47158 6.64009L8.35 7.60145C7.19377 8.59249 6.61566 9.08802 6.30783 9.75731ZM15.6548 21.9531C15.6548 21.9515 15.6548 21.9499 15.6548 21.9482V16.3403C15.6548 16.2732 15.6003 16.2188 15.5332 16.2188H12.1685C12.1013 16.2188 12.0469 16.2732 12.0469 16.3403V21.9482C12.0469 21.9499 12.0469 21.9515 12.0469 21.9531H15.6548Z" fill="#AEAEAE"/>
</svg>
