<svg width="28" height="29" viewBox="0 0 28 29" fill="none" xmlns="http://www.w3.org/2000/svg">
<path d="M15.7381 23.5C16.0667 23.5 16.3472 23.3754 16.5795 23.1261C16.8118 22.8824 17.0072 22.5567 17.1659 22.1487L22.7664 7.48867C22.8401 7.29603 22.8967 7.11756 22.9364 6.95326C22.9761 6.78895 22.9959 6.63314 22.9959 6.48584C22.9959 6.18555 22.9081 5.94759 22.7324 5.77195C22.5568 5.59065 22.3188 5.5 22.0186 5.5C21.8769 5.5 21.7211 5.52266 21.5511 5.56799C21.3812 5.60765 21.1999 5.66147 21.0072 5.72946L6.29618 11.364C5.92791 11.5057 5.61913 11.6926 5.36983 11.9249C5.12621 12.1572 5.00439 12.4377 5.00439 12.7663C5.00439 13.1686 5.14037 13.466 5.41233 13.6586C5.68428 13.8456 6.02706 14.0014 6.44065 14.1261L10.8514 15.4773C11.146 15.568 11.3925 15.6048 11.5908 15.5878C11.7891 15.5652 11.9931 15.4575 12.2027 15.2649L21.6616 6.49433C21.7183 6.44334 21.7778 6.41785 21.8401 6.41785C21.9081 6.41785 21.9676 6.44051 22.0186 6.48584C22.0639 6.53116 22.0865 6.58782 22.0865 6.65581C22.0865 6.71813 22.0582 6.77762 22.0016 6.83428L13.265 16.3187C13.0837 16.5113 12.9789 16.7096 12.9506 16.9136C12.9279 17.1176 12.9591 17.3697 13.0441 17.67L14.3528 21.9873C14.4831 22.4235 14.6446 22.7833 14.8373 23.0666C15.0299 23.3555 15.3302 23.5 15.7381 23.5Z" fill="#AEAEAE"/>
</svg>
